<svg version="1.1" viewBox="33.15 15.162849872773538 87.89999999999999 30.92620865139949" xmlns:xlink="http://www.w3.org/1999/xlink" xmlns="http://www.w3.org/2000/svg" style="max-height: 500px" width="87.89999999999999" height="30.92620865139949">
<defs>
<clipPath id="clip1">
  <path d="M 0 0 L 149.996094 0 L 149.996094 58.824219 L 0 58.824219 Z M 0 0"/>
</clipPath>
<linearGradient gradientTransform="matrix(0.5,0,0,0.5,0,0)" y2="44.853119" x2="101.973778" y1="73.3284" x1="101.347412" gradientUnits="userSpaceOnUse" id="linear0">
<stop style="stop-color:rgb(13.72549%,29.803922%,50.196078%);stop-opacity:1;" offset="0"/>
<stop style="stop-color:rgb(23.921569%,54.901961%,70.980392%);stop-opacity:1;" offset="1"/>
</linearGradient>
<linearGradient gradientTransform="matrix(0.5,0,0,0.5,0,0)" y2="54.331402" x2="103.413277" y1="62.61578" x1="107.413483" gradientUnits="userSpaceOnUse" id="linear1">
<stop style="stop-color:rgb(79.215686%,14.509804%,11.764706%);stop-opacity:1;" offset="0"/>
<stop style="stop-color:rgb(91.764706%,38.431373%,34.117647%);stop-opacity:1;" offset="1"/>
</linearGradient>
<linearGradient gradientTransform="matrix(0.5,0,0,0.5,0,0)" y2="76.321587" x2="109.949997" y1="56.019779" x1="117.077782" gradientUnits="userSpaceOnUse" id="linear2">
<stop style="stop-color:rgb(47.45098%,65.490196%,28.627451%);stop-opacity:1;" offset="0"/>
<stop style="stop-color:rgb(67.45098%,78.431373%,30.980392%);stop-opacity:1;" offset="1"/>
</linearGradient>
<linearGradient gradientTransform="matrix(0.5,0,0,0.5,0,0)" y2="63.056629" x2="107.816017" y1="74.553368" x1="109.165428" gradientUnits="userSpaceOnUse" id="linear3">
<stop style="stop-color:rgb(43.529412%,70.980392%,67.843137%);stop-opacity:1;" offset="0"/>
<stop style="stop-color:rgb(23.921569%,65.098039%,74.901961%);stop-opacity:1;" offset="1"/>
</linearGradient>
</defs>
<g id="surface1">
<g clip-rule="nonzero" clip-path="url(#clip1)">
<path d="M 0 0 L 150 0 L 150 58.824219 L 0 58.824219 Z M 0 0" style="stroke:none;fill-rule:nonzero;fill:rgb(12.156863%,16.470589%,22.352941%);fill-opacity:1;"/>
</g>
<path d="M 49.355469 36.945312 C 47.371094 35.746094 46.058594 34.347656 45.453125 32.027344 C 44.925781 30.042969 45.21875 27.929688 46.257812 26.160156 C 47.3125 24.363281 49.050781 23.066406 51.074219 22.5625 C 53.25 22.007812 55.160156 22.457031 57.046875 23.578125 C 56.441406 23.546875 55.085938 23.558594 54.574219 23.917969 C 53.742188 23.734375 53.007812 23.660156 52.15625 23.757812 C 50.476562 23.960938 48.941406 24.820312 47.890625 26.144531 C 46.832031 27.464844 46.351562 29.15625 46.554688 30.835938 C 46.796875 32.828125 47.769531 34.171875 49.296875 35.363281 C 49.085938 36.082031 49.117188 36.246094 49.355469 36.945312 Z M 49.355469 36.945312" style="stroke:none;fill-rule:nonzero;fill:url(#linear0);"/>
<path d="M 50.015625 31.324219 C 49.328125 30.0625 49.050781 27.136719 51.558594 27.503906 C 51.863281 27.550781 51.371094 28.164062 51.453125 28.507812 L 51.589844 28.539062 C 51.84375 28.464844 52.578125 28.113281 52.855469 27.988281 C 53.175781 28.125 53.5 28.292969 53.816406 28.445312 C 54 28.523438 54.035156 28.53125 54.230469 28.558594 L 54.3125 28.460938 C 54.363281 28.097656 54.085938 28.027344 54.046875 27.636719 L 54.179688 27.511719 C 55.015625 27.300781 55.480469 27.609375 55.992188 28.230469 C 56.371094 29.007812 56.484375 29.757812 56.195312 30.597656 C 55.925781 31.371094 55.359375 32 54.621094 32.351562 C 53.121094 33.066406 50.996094 32.773438 50.015625 31.324219 Z M 50.015625 31.324219" style="stroke:none;fill-rule:nonzero;fill:url(#linear1);"/>
<path d="M 55.992188 28.230469 C 56.371094 29.007812 56.484375 29.757812 56.195312 30.597656 C 55.925781 31.371094 55.359375 32 54.621094 32.351562 C 53.121094 33.066406 50.996094 32.773438 50.015625 31.324219 C 51.640625 31.886719 52.980469 32.109375 54.515625 31.058594 C 55.574219 30.339844 55.785156 29.429688 55.992188 28.230469 Z M 55.992188 28.230469" style="stroke:none;fill-rule:nonzero;fill:rgb(72.156864%,13.333334%,10.980392%);fill-opacity:1;"/>
<path d="M 50.785156 27.875 L 51.058594 27.929688 L 51.136719 28.054688 C 51.023438 28.351562 50.652344 28.496094 50.378906 29.019531 L 50.363281 29.046875 L 50.265625 29.136719 L 50.15625 29.078125 C 50.023438 28.628906 50.476562 28.144531 50.785156 27.875 Z M 50.785156 27.875" style="stroke:none;fill-rule:nonzero;fill:rgb(12.156863%,16.470589%,22.352941%);fill-opacity:1;"/>
<path d="M 60.085938 28.386719 C 60.363281 28.492188 61.164062 29.734375 61.398438 30.078125 L 60.605469 30.046875 C 60.511719 32.644531 59.476562 34.726562 57.375 36.300781 C 56.445312 37 54.464844 37.917969 53.28125 37.742188 C 51.777344 37.003906 52.117188 35.882812 53.316406 35.09375 C 54.210938 34.507812 55.308594 34.195312 56.273438 33.738281 C 56.929688 33.425781 57.546875 33.042969 58.117188 32.59375 C 58.757812 32.078125 59.460938 30.980469 59.554688 30.148438 C 59.363281 29.890625 59.304688 30.148438 59.042969 29.96875 C 59.113281 29.726562 59.878906 28.679688 60.085938 28.386719 Z M 60.085938 28.386719" style="stroke:none;fill-rule:nonzero;fill:url(#linear2);"/>
<path d="M 70.199219 28.207031 C 71.335938 27.984375 72.433594 28.722656 72.65625 29.859375 C 72.882812 30.992188 72.144531 32.09375 71.011719 32.320312 C 69.875 32.546875 68.769531 31.808594 68.546875 30.671875 C 68.320312 29.535156 69.0625 28.429688 70.199219 28.207031 Z M 70.199219 28.207031" style="stroke:none;fill-rule:nonzero;fill:rgb(14.117648%,32.156864%,52.549022%);fill-opacity:1;"/>
<path d="M 70.320312 29.015625 C 70.878906 28.988281 71.308594 29.089844 71.601562 29.621094 C 71.765625 29.921875 71.800781 30.277344 71.703125 30.609375 C 71.558594 31.109375 71.316406 31.269531 70.898438 31.488281 C 69.289062 31.554688 68.914062 29.777344 70.320312 29.015625 Z M 70.320312 29.015625" style="stroke:none;fill-rule:nonzero;fill:rgb(12.156863%,16.470589%,22.352941%);fill-opacity:1;"/>
<path d="M 94.84375 28.210938 C 95.976562 28.023438 97.050781 28.785156 97.246094 29.917969 C 97.4375 31.050781 96.679688 32.125 95.550781 32.324219 C 94.410156 32.523438 93.328125 31.761719 93.132812 30.621094 C 92.9375 29.484375 93.703125 28.402344 94.84375 28.210938 Z M 94.84375 28.210938" style="stroke:none;fill-rule:nonzero;fill:rgb(59.215689%,71.764708%,28.627452%);fill-opacity:1;"/>
<path d="M 94.960938 29.082031 C 95.605469 28.957031 96.226562 29.367188 96.367188 30.007812 C 96.503906 30.644531 96.105469 31.277344 95.46875 31.429688 C 95.046875 31.527344 94.601562 31.394531 94.308594 31.074219 C 94.015625 30.753906 93.917969 30.296875 94.050781 29.886719 C 94.1875 29.472656 94.535156 29.164062 94.960938 29.082031 Z M 94.960938 29.082031" style="stroke:none;fill-rule:nonzero;fill:rgb(12.156863%,16.470589%,22.352941%);fill-opacity:1;"/>
<path d="M 58.882812 30.613281 C 58.878906 30.871094 58.667969 31.195312 58.519531 31.402344 C 56.984375 33.609375 53.921875 33.574219 52.128906 35.363281 C 51.230469 36.261719 51.730469 37.152344 52.519531 37.847656 C 51.820312 37.730469 51.347656 37.652344 50.664062 37.457031 C 50.582031 37.414062 50.5 37.375 50.417969 37.332031 C 49.808594 37.015625 49.738281 36.734375 49.542969 36.113281 C 50.511719 32.859375 56.035156 33.660156 58.882812 30.613281 Z M 58.882812 30.613281" style="stroke:none;fill-rule:nonzero;fill:url(#linear3);"/>
<path d="M 102.957031 28.261719 L 103.863281 28.265625 L 103.558594 29.160156 C 103.210938 30.207031 102.84375 31.242188 102.457031 32.277344 L 101.675781 32.273438 C 101.332031 31.335938 101.011719 30.390625 100.707031 29.4375 L 99.785156 32.269531 C 99.484375 32.273438 99.351562 32.28125 99.050781 32.214844 C 98.789062 32.019531 97.792969 28.84375 97.570312 28.265625 L 98.515625 28.269531 L 99.386719 31.109375 L 100.335938 28.265625 C 100.609375 28.253906 100.863281 28.222656 101.117188 28.328125 C 101.335938 28.75 101.839844 30.480469 102.054688 31.105469 C 102.363281 30.25 102.679688 29.144531 102.957031 28.261719 Z M 102.957031 28.261719" style="stroke:none;fill-rule:nonzero;fill:rgb(59.215689%,71.764708%,28.627452%);fill-opacity:1;"/>
<path d="M 86.664062 27.085938 L 90.371094 27.085938 L 90.367188 27.921875 L 87.660156 27.921875 L 87.660156 29.441406 C 88.09375 29.433594 89.867188 29.34375 90.085938 29.53125 C 90.085938 29.734375 90.117188 30.074219 90.007812 30.230469 C 89.5 30.304688 88.234375 30.273438 87.664062 30.273438 L 87.664062 32.277344 L 86.6875 32.28125 Z M 86.664062 27.085938" style="stroke:none;fill-rule:nonzero;fill:rgb(59.215689%,71.764708%,28.627452%);fill-opacity:1;"/>
<path d="M 64.378906 27.101562 L 68.039062 27.097656 L 68.035156 27.925781 L 65.386719 27.941406 L 65.394531 29.4375 L 67.828125 29.414062 C 67.832031 29.671875 67.859375 29.992188 67.761719 30.226562 C 67.273438 30.304688 65.945312 30.273438 65.386719 30.273438 C 65.390625 30.921875 65.371094 31.597656 65.359375 32.246094 L 64.382812 32.261719 Z M 64.378906 27.101562" style="stroke:none;fill-rule:nonzero;fill:rgb(14.117648%,32.156864%,52.549022%);fill-opacity:1;"/>
<path d="M 80.628906 28.253906 L 81.558594 28.253906 L 81.554688 29.796875 C 81.558594 30.613281 81.550781 31.429688 81.523438 32.246094 C 81.292969 32.25 80.832031 32.285156 80.644531 32.191406 L 80.601562 31.789062 C 80.4375 31.695312 79.886719 32.304688 79.308594 32.324219 C 77.394531 32.394531 77.828125 29.640625 77.816406 28.261719 L 78.742188 28.261719 C 78.734375 28.839844 78.597656 30.9375 79.015625 31.191406 C 81.015625 32.402344 80.632812 29.035156 80.628906 28.253906 Z M 80.628906 28.253906" style="stroke:none;fill-rule:nonzero;fill:rgb(14.117648%,32.156864%,52.549022%);fill-opacity:1;"/>
<path d="M 54.574219 23.917969 C 55.085938 23.558594 56.441406 23.546875 57.046875 23.578125 C 58.121094 24.3125 60.296875 26.46875 60.207031 27.828125 C 59.804688 27.90625 59.417969 28.628906 59.171875 28.984375 C 58.679688 26.347656 57.042969 24.773438 54.574219 23.917969 Z M 54.574219 23.917969" style="stroke:none;fill-rule:nonzero;fill:rgb(31.37255%,65.490198%,70.19608%);fill-opacity:1;"/>
<path d="M 84.042969 28.152344 C 84.738281 28.183594 84.960938 28.261719 85.605469 28.535156 L 85.253906 29.238281 C 84.769531 29.019531 83.796875 28.609375 83.527344 29.28125 C 83.847656 29.980469 86.859375 30.191406 85.292969 31.910156 C 84.875 32.371094 84.308594 32.316406 83.75 32.3125 C 83.144531 32.1875 82.917969 32.066406 82.390625 31.769531 C 82.542969 31.542969 82.648438 31.328125 82.773438 31.085938 C 83.3125 31.367188 83.898438 31.734375 84.523438 31.496094 C 84.707031 31.316406 84.683594 31.386719 84.746094 31.15625 C 84.554688 30.507812 81.523438 30.363281 82.925781 28.660156 C 83.28125 28.226562 83.515625 28.226562 84.042969 28.152344 Z M 84.042969 28.152344" style="stroke:none;fill-rule:nonzero;fill:rgb(14.117648%,32.156864%,52.549022%);fill-opacity:1;"/>
<path d="M 74.972656 28.210938 C 76.03125 28.15625 76.382812 28.242188 77.089844 29.039062 L 76.363281 29.503906 C 75.9375 29.089844 75.171875 28.722656 74.722656 29.203125 C 73.636719 30.347656 74.792969 32.496094 76.328125 30.964844 C 76.605469 31.113281 76.957031 31.222656 76.964844 31.550781 C 76.792969 31.847656 76.304688 32.117188 75.992188 32.226562 C 75.480469 32.40625 74.917969 32.367188 74.433594 32.125 C 73.9375 31.875 73.558594 31.4375 73.382812 30.910156 C 72.941406 29.585938 73.742188 28.597656 74.96875 28.210938 Z M 74.972656 28.210938" style="stroke:none;fill-rule:nonzero;fill:rgb(14.117648%,32.156864%,52.549022%);fill-opacity:1;"/>
<path d="M 144.804688 51.457031 C 144.90625 51.523438 144.992188 51.707031 145.050781 51.820312 C 145.648438 53.03125 145.9375 53.238281 147.203125 53.664062 C 145.851562 54.175781 145.417969 54.539062 144.894531 55.898438 C 144.421875 55.652344 144.722656 54.476562 142.492188 53.671875 C 143.835938 53.222656 144.3125 52.785156 144.804688 51.457031 Z M 144.804688 51.457031" style="stroke:none;fill-rule:nonzero;fill:rgb(56.470591%,58.039218%,60.392159%);fill-opacity:1;"/>
<path d="M 91.199219 26.804688 L 92.148438 26.804688 L 92.140625 32.242188 L 91.21875 32.242188 Z M 91.199219 26.804688" style="stroke:none;fill-rule:nonzero;fill:rgb(59.215689%,71.764708%,28.627452%);fill-opacity:1;"/>
<path d="M 52.191406 27.539062 C 51.960938 27.425781 51.375 27.199219 51.269531 27.046875 C 51.609375 26.863281 51.980469 27.003906 52.320312 27.109375 C 52.429688 27.140625 52.53125 27.171875 52.636719 27.207031 C 52.824219 27.070312 52.753906 25.722656 53.535156 26.023438 C 53.710938 26.464844 53.046875 26.769531 53.0625 27.15625 C 53.398438 27.234375 54.0625 26.789062 54.445312 27.058594 C 54.359375 27.230469 53.796875 27.441406 53.597656 27.535156 C 53.769531 27.738281 54.015625 27.96875 54.019531 28.226562 L 53.816406 28.445312 C 53.5 28.292969 53.175781 28.125 52.855469 27.988281 C 52.578125 28.113281 51.84375 28.464844 51.589844 28.539062 C 51.605469 28.457031 51.660156 28.390625 51.707031 28.320312 C 51.625 27.953125 51.929688 27.773438 52.191406 27.539062 Z M 52.191406 27.539062" style="stroke:none;fill-rule:nonzero;fill:rgb(59.215689%,71.764708%,28.627452%);fill-opacity:1;"/>
<path d="M 52.847656 27.773438 C 53.140625 27.902344 53.730469 28.195312 54.019531 28.226562 L 53.816406 28.445312 C 53.5 28.292969 53.175781 28.125 52.855469 27.988281 C 52.578125 28.113281 51.84375 28.464844 51.589844 28.539062 C 51.605469 28.457031 51.660156 28.390625 51.707031 28.320312 C 52.09375 28.125 52.453125 27.941406 52.847656 27.773438 Z M 52.847656 27.773438" style="stroke:none;fill-rule:nonzero;fill:rgb(9.803922%,13.725491%,21.960784%);fill-opacity:1;"/>
<path d="M 71.492188 34.480469 C 71.925781 34.3125 72.414062 34.527344 72.585938 34.960938 C 72.753906 35.394531 72.539062 35.882812 72.105469 36.054688 C 71.671875 36.226562 71.179688 36.011719 71.007812 35.574219 C 70.839844 35.140625 71.054688 34.648438 71.492188 34.480469 Z M 71.492188 34.480469" style="stroke:none;fill-rule:nonzero;fill:rgb(45.490196%,45.09804%,45.490196%);fill-opacity:1;"/>
<path d="M 71.589844 34.699219 C 71.90625 34.578125 72.253906 34.734375 72.375 35.050781 C 72.496094 35.363281 72.339844 35.714844 72.03125 35.835938 C 71.714844 35.960938 71.359375 35.804688 71.238281 35.488281 C 71.113281 35.171875 71.273438 34.816406 71.589844 34.699219 Z M 71.589844 34.699219" style="stroke:none;fill-rule:nonzero;fill:rgb(12.156863%,16.470589%,22.352941%);fill-opacity:1;"/>
<path d="M 73.210938 34.433594 C 74.257812 34.421875 75.183594 34.761719 74.390625 35.933594 C 74.003906 36.132812 73.597656 36.113281 73.171875 36.117188 C 73.21875 35.597656 73.207031 34.960938 73.210938 34.433594 Z M 73.210938 34.433594" style="stroke:none;fill-rule:nonzero;fill:rgb(45.490196%,45.09804%,45.490196%);fill-opacity:1;"/>
<path d="M 73.4375 34.640625 C 74.269531 34.609375 74.609375 34.90625 74.277344 35.734375 C 74.0625 35.828125 73.789062 35.925781 73.570312 35.828125 C 73.351562 35.578125 73.429688 34.992188 73.4375 34.640625 Z M 73.4375 34.640625" style="stroke:none;fill-rule:nonzero;fill:rgb(12.156863%,16.470589%,22.352941%);fill-opacity:1;"/>
<path d="M 69.214844 34.429688 C 70.835938 34.371094 70.5625 34.625 70.238281 35.535156 C 70.222656 35.578125 70.441406 35.875 70.492188 36.027344 L 70.355469 36.15625 C 70.210938 35.953125 69.949219 35.519531 69.730469 35.453125 C 69.527344 35.605469 69.492188 35.808594 69.378906 36.066406 L 69.296875 36.089844 C 69.148438 35.851562 69.210938 34.78125 69.214844 34.429688 Z M 69.214844 34.429688" style="stroke:none;fill-rule:nonzero;fill:rgb(45.490196%,45.09804%,45.490196%);fill-opacity:1;"/>
<path d="M 69.429688 34.625 C 69.664062 34.621094 69.886719 34.597656 70.101562 34.695312 C 70.300781 34.9375 70.242188 34.859375 70.296875 35.210938 C 70.078125 35.253906 69.746094 35.328125 69.554688 35.234375 C 69.386719 34.984375 69.4375 34.949219 69.429688 34.625 Z M 69.429688 34.625" style="stroke:none;fill-rule:nonzero;fill:rgb(12.156863%,16.470589%,22.352941%);fill-opacity:1;"/>
<path d="M 67.460938 34.429688 C 68.0625 34.402344 68.371094 34.335938 68.71875 34.914062 C 68.742188 35.4375 68.421875 35.511719 67.960938 35.585938 C 67.617188 35.484375 67.765625 35.882812 67.507812 36.070312 C 67.445312 35.695312 67.464844 34.839844 67.460938 34.429688 Z M 67.460938 34.429688" style="stroke:none;fill-rule:nonzero;fill:rgb(45.490196%,45.09804%,45.490196%);fill-opacity:1;"/>
<path d="M 67.679688 34.628906 C 67.960938 34.628906 68.210938 34.609375 68.410156 34.792969 C 68.492188 35.054688 68.457031 35.003906 68.394531 35.304688 C 68.175781 35.335938 67.984375 35.386719 67.777344 35.308594 C 67.632812 35.058594 67.683594 34.941406 67.679688 34.628906 Z M 67.679688 34.628906" style="stroke:none;fill-rule:nonzero;fill:rgb(12.156863%,16.470589%,22.352941%);fill-opacity:1;"/>
<path d="M 97.226562 34.375 C 97.609375 34.496094 97.804688 34.988281 98.03125 35.371094 C 98.273438 34.929688 98.507812 34.5625 98.785156 34.140625 C 98.816406 34.445312 98.902344 35.847656 98.683594 36.003906 C 98.585938 35.683594 98.605469 35.410156 98.605469 35.082031 L 98.554688 34.980469 C 98.367188 35.140625 98.15625 35.605469 98.03125 35.84375 C 97.851562 35.492188 97.632812 35.167969 97.421875 34.835938 C 97.429688 35.097656 97.480469 35.777344 97.320312 35.964844 C 97.125 35.601562 97.203125 34.804688 97.226562 34.375 Z M 97.226562 34.375" style="stroke:none;fill-rule:nonzero;fill:rgb(45.490196%,45.09804%,45.490196%);fill-opacity:1;"/>
<path d="M 95.414062 34.429688 C 95.816406 34.429688 96.128906 34.433594 96.527344 34.476562 C 96.386719 34.601562 95.820312 34.703125 95.601562 34.753906 C 95.589844 34.867188 95.605469 34.851562 95.660156 34.96875 C 95.882812 35.152344 96.117188 35.195312 96.394531 35.273438 C 96.164062 35.359375 95.867188 35.339844 95.617188 35.339844 C 95.617188 35.527344 95.632812 35.640625 95.660156 35.824219 C 95.828125 35.921875 96.28125 35.878906 96.539062 35.886719 L 96.605469 35.964844 L 96.550781 36.066406 C 96.230469 36.109375 95.734375 36.097656 95.394531 36.097656 C 95.414062 35.550781 95.410156 34.980469 95.414062 34.429688 Z M 95.414062 34.429688" style="stroke:none;fill-rule:nonzero;fill:rgb(45.490196%,45.09804%,45.490196%);fill-opacity:1;"/>
<path d="M 88.953125 34.425781 C 89.324219 34.425781 89.539062 34.375 89.796875 34.667969 C 89.503906 34.816406 89.222656 34.585938 88.949219 34.757812 C 89.097656 35.109375 89.660156 35.152344 89.832031 35.664062 C 89.804688 35.894531 89.707031 35.957031 89.542969 36.121094 C 89.105469 36.121094 88.960938 36.132812 88.625 35.863281 C 88.6875 35.78125 89.292969 35.847656 89.570312 35.804688 L 89.640625 35.703125 C 89.46875 35.234375 88.828125 35.421875 88.664062 34.929688 C 88.707031 34.683594 88.789062 34.617188 88.953125 34.425781 Z M 88.953125 34.425781" style="stroke:none;fill-rule:nonzero;fill:rgb(45.490196%,45.09804%,45.490196%);fill-opacity:1;"/>
<path d="M 92.328125 34.421875 C 92.582031 34.40625 92.679688 34.394531 92.925781 34.441406 L 93.019531 34.605469 L 93.148438 34.527344 L 93.050781 34.480469 L 93.113281 34.578125 L 92.320312 34.800781 L 92.324219 34.917969 C 92.691406 35.175781 93.203125 35.261719 93.238281 35.695312 C 93.113281 35.933594 93.054688 35.96875 92.832031 36.125 C 92.621094 36.109375 92.121094 36.058594 92.046875 35.832031 C 92.328125 35.835938 92.636719 35.847656 92.910156 35.785156 L 92.980469 35.617188 C 92.808594 35.300781 92.300781 35.441406 92.058594 34.921875 C 92.074219 34.671875 92.15625 34.609375 92.328125 34.421875 Z M 92.328125 34.421875" style="stroke:none;fill-rule:nonzero;fill:rgb(45.490196%,45.09804%,45.490196%);fill-opacity:1;"/>
<path d="M 75.234375 34.390625 C 75.699219 34.675781 75.164062 35.34375 75.652344 35.847656 C 75.851562 35.902344 75.882812 35.914062 76.082031 35.847656 C 76.40625 35.523438 76.308594 35.003906 76.367188 34.511719 L 76.464844 34.445312 L 76.574219 34.503906 C 76.574219 34.636719 76.578125 34.765625 76.578125 34.894531 C 76.578125 35.441406 76.492188 36.089844 75.785156 36.085938 C 75.015625 35.835938 75.175781 35.011719 75.234375 34.390625 Z M 75.234375 34.390625" style="stroke:none;fill-rule:nonzero;fill:rgb(45.490196%,45.09804%,45.490196%);fill-opacity:1;"/>
<path d="M 77.632812 34.425781 C 77.9375 34.410156 78.410156 34.363281 78.546875 34.722656 C 78.292969 34.886719 77.386719 34.5 77.328125 35.023438 C 77.265625 35.582031 77.519531 35.8125 77.980469 35.941406 C 78.195312 35.832031 78.21875 35.773438 78.421875 35.796875 L 78.414062 35.902344 C 77.328125 36.59375 76.535156 35.390625 77.632812 34.425781 Z M 77.632812 34.425781" style="stroke:none;fill-rule:nonzero;fill:rgb(45.490196%,45.09804%,45.490196%);fill-opacity:1;"/>
<path d="M 81.5 34.390625 C 81.5625 34.40625 81.65625 34.453125 81.71875 34.484375 C 81.957031 34.824219 82.121094 35.332031 82.269531 35.730469 C 82.421875 35.351562 82.621094 34.808594 82.828125 34.472656 L 82.957031 34.460938 L 82.976562 34.601562 C 82.753906 35.089844 82.488281 35.8125 82.285156 36.324219 C 82.035156 35.738281 81.691406 34.984375 81.5 34.390625 Z M 81.5 34.390625" style="stroke:none;fill-rule:nonzero;fill:rgb(45.490196%,45.09804%,45.490196%);fill-opacity:1;"/>
<path d="M 46.972656 29.746094 C 47.324219 29.738281 47.8125 29.664062 48.070312 29.820312 C 48.207031 30.066406 48.167969 29.996094 48.15625 30.304688 C 47.792969 30.328125 47.328125 30.414062 47.039062 30.238281 C 46.914062 30.003906 46.953125 30.050781 46.972656 29.746094 Z M 46.972656 29.746094" style="stroke:none;fill-rule:nonzero;fill:rgb(19.607843%,43.921569%,63.137257%);fill-opacity:1;"/>
<path d="M 90.152344 34.382812 L 90.351562 34.433594 C 90.601562 34.609375 90.785156 34.972656 90.949219 35.242188 C 91.011719 35.128906 91.074219 35.015625 91.140625 34.902344 C 91.246094 34.730469 91.390625 34.53125 91.59375 34.480469 C 91.609375 34.671875 91.4375 34.875 91.324219 35.046875 C 91.003906 35.5 91.160156 35.609375 90.910156 36.042969 C 90.761719 35.914062 90.875 35.652344 90.789062 35.464844 C 90.625 35.109375 90.355469 34.738281 90.152344 34.382812 Z M 90.152344 34.382812" style="stroke:none;fill-rule:nonzero;fill:rgb(45.490196%,45.09804%,45.490196%);fill-opacity:1;"/>
<path d="M 52.667969 24.140625 C 52.992188 24.171875 52.9375 24.117188 53.136719 24.304688 C 53.285156 24.664062 53.199219 25.042969 53.105469 25.417969 C 52.378906 25.253906 52.570312 24.765625 52.667969 24.140625 Z M 52.667969 24.140625" style="stroke:none;fill-rule:nonzero;fill:rgb(19.607843%,43.921569%,63.137257%);fill-opacity:1;"/>
<path d="M 85.882812 34.390625 C 86.304688 34.488281 86.40625 34.816406 86.667969 35.230469 C 86.808594 34.960938 86.964844 34.59375 87.261719 34.5 C 87.28125 34.707031 87.199219 34.75 87.0625 34.976562 C 86.761719 35.382812 86.847656 35.558594 86.632812 36.023438 C 86.5 35.9375 86.59375 35.757812 86.535156 35.566406 C 86.421875 35.210938 86.082031 34.742188 85.882812 34.390625 Z M 85.882812 34.390625" style="stroke:none;fill-rule:nonzero;fill:rgb(45.490196%,45.09804%,45.490196%);fill-opacity:1;"/>
<path d="M 93.59375 34.464844 C 93.976562 34.433594 94.273438 34.429688 94.660156 34.433594 L 94.757812 34.574219 L 94.875 34.496094 C 94.851562 34.542969 94.480469 34.703125 94.402344 34.738281 C 94.320312 34.921875 94.347656 35.464844 94.347656 35.691406 C 94.359375 35.863281 94.34375 35.910156 94.308594 36.070312 L 94.207031 36.085938 C 94.015625 35.796875 94.230469 34.917969 94.039062 34.667969 L 93.675781 34.632812 Z M 93.59375 34.464844" style="stroke:none;fill-rule:nonzero;fill:rgb(45.490196%,45.09804%,45.490196%);fill-opacity:1;"/>
<path d="M 78.871094 34.460938 C 79.109375 34.429688 80 34.382812 80.1875 34.503906 L 80.152344 34.617188 C 80.011719 34.640625 79.871094 34.65625 79.730469 34.671875 C 79.632812 34.875 79.660156 35.503906 79.660156 35.765625 C 79.640625 35.960938 79.675781 35.972656 79.558594 36.074219 C 79.410156 35.75 79.5 35.089844 79.402344 34.699219 C 79.242188 34.636719 79.136719 34.636719 78.96875 34.621094 Z M 78.871094 34.460938" style="stroke:none;fill-rule:nonzero;fill:rgb(45.490196%,45.09804%,45.490196%);fill-opacity:1;"/>
<path d="M 84.265625 34.460938 C 84.617188 34.433594 84.972656 34.4375 85.324219 34.433594 L 85.417969 34.578125 L 85.515625 34.527344 L 85.445312 34.449219 L 85.527344 34.472656 L 85.515625 34.535156 L 85.089844 34.71875 C 85 34.914062 85.027344 35.519531 85.027344 35.765625 C 85.027344 35.8125 85 35.964844 84.992188 36.019531 L 84.921875 36.0625 C 84.761719 35.679688 84.875 35.027344 84.757812 34.695312 C 84.597656 34.648438 84.515625 34.640625 84.355469 34.617188 Z M 84.265625 34.460938" style="stroke:none;fill-rule:nonzero;fill:rgb(45.490196%,45.09804%,45.490196%);fill-opacity:1;"/>
<path d="M 57.734375 29.734375 C 57.953125 29.726562 58.207031 29.691406 58.386719 29.804688 C 58.453125 30.074219 58.414062 30.035156 58.320312 30.339844 C 58.085938 30.34375 57.921875 30.371094 57.726562 30.242188 C 57.636719 30 57.679688 30.027344 57.734375 29.734375 Z M 57.734375 29.734375" style="stroke:none;fill-rule:nonzero;fill:rgb(19.607843%,43.921569%,63.137257%);fill-opacity:1;"/>
<path d="M 83.558594 34.378906 C 83.652344 34.425781 83.679688 34.472656 83.746094 34.550781 C 83.820312 35.101562 83.765625 35.59375 83.6875 36.140625 L 83.542969 36.007812 C 83.46875 35.53125 83.503906 34.863281 83.558594 34.378906 Z M 83.558594 34.378906" style="stroke:none;fill-rule:nonzero;fill:rgb(45.490196%,45.09804%,45.490196%);fill-opacity:1;"/>
<path d="M 80.746094 34.375 C 80.816406 34.417969 80.867188 34.484375 80.917969 34.546875 C 80.976562 34.964844 81.027344 35.757812 80.847656 36.132812 L 80.75 36.019531 C 80.664062 35.597656 80.714844 34.816406 80.75 34.375 Z M 80.746094 34.375" style="stroke:none;fill-rule:nonzero;fill:rgb(45.490196%,45.09804%,45.490196%);fill-opacity:1;"/>
<path d="M 49.964844 25.105469 C 50.09375 25.011719 50.273438 25.035156 50.375 25.160156 C 50.472656 25.285156 50.460938 25.464844 50.34375 25.570312 C 50.261719 25.644531 50.144531 25.667969 50.039062 25.628906 C 49.9375 25.589844 49.863281 25.5 49.847656 25.390625 C 49.832031 25.28125 49.878906 25.171875 49.964844 25.105469 Z M 49.964844 25.105469" style="stroke:none;fill-rule:nonzero;fill:rgb(19.607843%,43.921569%,63.137257%);fill-opacity:1;"/>
</g>
</svg>